<?xml version="1.0" encoding="UTF-8"?>
<svg id="Layer_1" data-name="Layer 1" xmlns="http://www.w3.org/2000/svg" viewBox="0 0 892.92 439.82">
  <path d="M143,164.28c20.59-16.26,50.22-15.11,70.31,1.24l312.71,254.41c22.24,22.77,56.92,26.34,82.1,7.78,15.03-12.3,23.1-27.79,23.47-45.88.39-18.75-7.04-35.75-22.59-48.41L218.92,15.76c-25.21-20.53-56.39-21.07-81.93-.51L15.95,112.66c-22.13,25.75-21.48,63.53,3.46,85.68,21.98,19.52,53.44,21.31,76.45,3.15l47.14-37.22Z"/>
  <path d="M796.46,427.3c25.95,21.1,64.22,13.98,83.19-9.74,20.58-25.74,16.98-62.79-9.1-84.01L477.38,13.66c-13.41-10.91-27.58-14.77-44.99-13.4-23.94,1.89-44.13,19.77-50.48,41.05-7.49,25.13.51,49.32,20.83,65.84l393.72,320.14Z"/>
  <rect x="132.82" y="288.18" width="147.88" height="147.88" rx="38.41" ry="38.41"/>
</svg>