<?xml version="1.0" encoding="UTF-8"?>
<svg id="Layer_1" xmlns="http://www.w3.org/2000/svg" xmlns:xlink="http://www.w3.org/1999/xlink" version="1.1" viewBox="0 0 1080 1080">
  <!-- Generator: Adobe Illustrator 30.3.0, SVG Export Plug-In . SVG Version: 2.1.3 Build 182)  -->
  <defs>
    <style>
      .st0 {
        fill: url(#linear-gradient);
      }

      .st0, .st1, .st2 {
        stroke: #686764;
        stroke-miterlimit: 10;
      }

      .st1 {
        fill: url(#linear-gradient1);
      }

      .st2 {
        fill: url(#linear-gradient2);
      }
    </style>
    <linearGradient id="linear-gradient" x1="70.8" y1="513.7" x2="766" y2="513.7" gradientUnits="userSpaceOnUse">
      <stop offset="0" stop-color="#fcc106"/>
      <stop offset=".1" stop-color="#e9d203"/>
      <stop offset=".3" stop-color="#dcdf02"/>
      <stop offset=".5" stop-color="#d5e601"/>
      <stop offset="1" stop-color="#d3e901"/>
    </linearGradient>
    <linearGradient id="linear-gradient1" x1="488.1" y1="513.7" x2="1053.7" y2="513.7" xlink:href="#linear-gradient"/>
    <linearGradient id="linear-gradient2" x1="235" y1="635.4" x2="379.7" y2="715.1" gradientUnits="userSpaceOnUse">
      <stop offset="0" stop-color="#fcc106"/>
      <stop offset=".1" stop-color="#e9d203"/>
      <stop offset=".3" stop-color="#dcdf02"/>
      <stop offset=".5" stop-color="#d5e601"/>
      <stop offset="1" stop-color="#d3e901"/>
    </linearGradient>
  </defs>
  <g>
    <path class="st0" d="M228.2,452.5c22.7-17.9,55.3-16.6,77.4,1.4l344.2,280c24.5,25.1,62.7,29,90.4,8.6,16.5-13.5,25.4-30.6,25.8-50.5.4-20.6-7.8-39.3-24.9-53.3l-429.4-349.7c-27.7-22.6-62.1-23.2-90.2-.6l-133.2,107.2c-24.4,28.3-23.6,69.9,3.8,94.3,24.2,21.5,58.8,23.5,84.2,3.5l51.9-41Z"/>
    <path class="st1" d="M947.5,742c28.6,23.2,70.7,15.4,91.6-10.7,22.6-28.3,18.7-69.1-10-92.5l-432.8-352.1c-14.8-12-30.4-16.3-49.5-14.7s-48.6,21.8-55.6,45.2c-8.2,27.7.6,54.3,22.9,72.5l433.4,352.4Z"/>
    <rect class="st2" x="217" y="588.9" width="162.8" height="162.8" rx="38.4" ry="38.4"/>
  </g>
  <g id="IZHCJ7.tif">
    <image id="Layer_0" width="2928" height="1252" transform="translate(1212.7 -18.7) scale(.3)" xlink:href="logo-carihunian-warna-1.png"/>
  </g>
</svg>